<svg xmlns="http://www.w3.org/2000/svg" width="100%" height="100%" viewBox="0 0 137 133" class="mainIcon">

	<style>.a{fill:#928158;}.b{fill:#E8C325;}</style>

	<style type="text/css">

		.a:hover {display:block;
		fill: #fff;
		transition-duration: 1s;
		}

		.b:hover {
		fill: #f9fcd3;
		transition-duration: 1s;
		}

		@media screen and (max-width : 150px) {
			.a {
			display:none;
			}
		}

	
	</style>

	<path d="M39.3 39c0.2 0.1 0.4 0.1 0.6 0l30.3-8.1c0.6-0.2 0.9-0.7 0.8-1.3 -0.2-0.6-0.7-0.9-1.3-0.8l-30.3 8.1c-0.6 0.2-0.9 0.7-0.8 1.3C38.7 38.6 39 38.9 39.3 39z" class="a"/><path d="M119.2 12.1c-0.2-0.5-0.8-0.8-1.4-0.6L82.6 24.8c-0.5 0.2-0.8 0.8-0.6 1.4 0.1 0.3 0.4 0.5 0.7 0.6 0.2 0.1 0.5 0.1 0.7 0l35.2-13.3C119.1 13.3 119.4 12.6 119.2 12.1z" class="a"/><path d="M37.5 43.2L57.3 62.2c0.1 0.1 0.3 0.2 0.4 0.3 0.4 0.1 0.8 0 1.1-0.3 0.4-0.4 0.4-1.1 0-1.5L39 41.6c-0.4-0.4-1.1-0.4-1.5 0C37.1 42.1 37.1 42.8 37.5 43.2z" class="a"/><path d="M64.4 66c0 0 0.1 0 0.1 0l16 3.4c0.6 0.1 1.1-0.2 1.3-0.8s-0.2-1.1-0.8-1.3l-16-3.4c-0.6-0.1-1.1 0.2-1.3 0.8C63.5 65.3 63.9 65.8 64.4 66z" class="a"/><path d="M57 97.4l-9.1-2.8c-0.6-0.2-1.2 0.1-1.3 0.7 -0.2 0.6 0.1 1.2 0.7 1.3l9.1 2.8c0.6 0.2 1.2-0.1 1.3-0.7C57.8 98.2 57.5 97.6 57 97.4z" class="a"/><path d="M66 102.6c-0.4-0.5-1-0.5-1.5-0.2 -0.5 0.4-0.5 1-0.2 1.5l12.6 16.1c0.1 0.2 0.3 0.3 0.5 0.4 0.3 0.1 0.7 0 1-0.2 0.5-0.4 0.5-1 0.2-1.5L66 102.6z" class="a"/><path d="M38.5 97.3c-0.6-0.2-1.2 0.1-1.3 0.7l-2.5 8.1c-0.2 0.6 0.1 1.2 0.7 1.3 0.6 0.2 1.2-0.1 1.3-0.7l2.5-8.1C39.3 98.1 39 97.5 38.5 97.3z" class="a"/><path d="M19.2 73.7c-0.2-0.6-0.8-0.9-1.3-0.7 -0.6 0.2-0.9 0.8-0.7 1.3l11.1 32.7c0.1 0.3 0.4 0.6 0.7 0.7 0.2 0.1 0.4 0.1 0.7 0 0.6-0.2 0.9-0.8 0.7-1.3L19.2 73.7z" class="a"/><path d="M28.3 59.3c0.2-0.6-0.1-1.2-0.7-1.3l-7.8-2.4 -2 6.6c-0.2 0.6 0.1 1.2 0.7 1.3 0.6 0.2 1.2-0.1 1.3-0.7l1.4-4.5 5.8 1.8C27.5 60.2 28.1 59.9 28.3 59.3z" class="a"/><path d="M33 54.6c0 0.5 0.3 0.9 0.7 1.1 0.1 0 0.2 0 0.3 0 0.6 0 1.1-0.4 1.1-1l0.5-11c0-0.6-0.4-1.1-1-1.1 -0.6 0-1.1 0.4-1.1 1L33 54.6z" class="a"/><circle cx="125" cy="10.9" r="3.9" class="b"/><circle cx="32.2" cy="38" r="3.2" class="b"/><circle cx="90.4" cy="68" r="4.6" class="b"/><circle cx="83.5" cy="125.6" r="3.5" class="b"/><circle cx="32.8" cy="115.9" r="3.9" class="b"/><circle cx="12.3" cy="65.5" r="3.5" class="b"/><circle cx="34" cy="61.1" r="2.8" class="b"/><circle cx="39.7" cy="93.2" r="2.5" class="b"/><circle cx="63.1" cy="97.8" r="2.1" class="b"/><circle cx="59.6" cy="63.4" r="2.7" class="b"/><circle cx="73.8" cy="26.3" r="2.7" class="b"/></svg>