<svg xmlns="http://www.w3.org/2000/svg" width="137" height="133" viewBox="0 0 137 133" class="mainIcon"><style>.a{fill:#928158;}.b{fill:#E8C325;}</style>
<style type="text/css">

		.a:hover {display:block;
		fill: #fff;
		transition-duration: 1s;
		}

		@media screen and (max-width : 150px) {
			.a {
			display:none;
			}
		}

	
	</style>

<path d="M83.9 62.5c-0.1 0-0.2-0.1-0.3-0.1l-59-36.7c-0.6-0.4-0.8-1.2-0.4-1.9 0.4-0.6 1.2-0.8 1.9-0.4l59 36.7c0.6 0.4 0.8 1.2 0.4 1.9C85.1 62.4 84.4 62.7 83.9 62.5z" class="a"/><path d="M113.9 87.1c-0.2-0.1-0.4-0.2-0.5-0.3L95.6 70.8c-0.6-0.5-0.6-1.4-0.1-1.9 0.5-0.6 1.4-0.6 1.9-0.1l17.8 16c0.6 0.5 0.6 1.4 0.1 1.9C115 87.1 114.4 87.3 113.9 87.1z" class="a"/><path d="M118.1 108.4c-0.6-0.2-1-0.7-1-1.4l0.8-13.5c0-0.7 0.7-1.3 1.4-1.3 0.7 0 1.3 0.7 1.3 1.4l-0.8 13.5c0 0.7-0.7 1.3-1.4 1.3C118.3 108.5 118.2 108.5 118.1 108.4z" class="a"/><path d="M25.2 20.2c2.2 0 1.6-1.3 1.1-1.9 -0.3-0.4-1.6-2.5-1.7-2.7 -0.1-0.3-0.4-0.5-0.2-1 0.2-0.7 0.8-2 1.2-3.7 0.4-1.7-0.9-1.6-1.8-1.4s-2.1 0.5-2.9 0.7c-0.8 0.2-1.1-0.1-1.5-0.3 -0.4-0.2-2.8-1.8-3.4-2.2 -0.2-0.1-0.5-0.2-0.8-0.1 -0.2 0-0.3 0.1-0.4 0.3 -0.1 0.1-0.1 0.2-0.2 0.3 -0.1 0.3-0.1 0.6-0.1 0.8 0 0.5-0.1 2.9-0.2 3.2 -0.1 0.3 0.1 0.6-0.4 0.9 -0.6 0.4-1.8 1.2-3.1 2.3 -1.3 1.1-0.2 1.8 0.7 2.2 0.6 0.2 1.5 0.5 2.3 0.8 0.4 0.2 0.7 0.3 0.8 0.4 0.2 0.1 0.3 0.2 0.5 0.3 0.2 0.2 0.3 0.5 0.4 0.7 0.1 0.2 0.4 1.2 0.8 2.1 0.1 0.3 0.2 0.7 0.3 1 0.3 0.9 0.9 2 2.1 0.8 1.2-1.3 2-2.5 2.5-3 0.1-0.1 0.2-0.2 0.2-0.2C22.4 20.3 23.2 20.3 25.2 20.2z" class="b"/><path d="M122.1 110.3c-0.2-2.2-1.4-1.4-2-0.9 -0.4 0.3-2.3 1.8-2.6 1.9 -0.2 0.1-0.4 0.4-1 0.3 -0.7-0.2-2.1-0.6-3.8-0.9 -1.7-0.3-1.5 1-1.2 1.9 0.3 0.9 0.6 2 0.9 2.8 0.3 0.8 0 1.1-0.2 1.5 -0.2 0.4-1.6 3-1.8 3.6 -0.1 0.3-0.1 0.5-0.1 0.8 0 0.2 0.2 0.3 0.3 0.4 0.1 0.1 0.2 0.1 0.3 0.1 0.3 0.1 0.6 0.1 0.9 0.1 0.5 0 2.9-0.1 3.2-0.1s0.6-0.1 1 0.3c0.5 0.5 1.4 1.7 2.6 2.9 1.2 1.2 1.8 0 2.1-0.9 0.2-0.7 0.4-1.6 0.6-2.3 0.1-0.4 0.2-0.7 0.3-0.9 0.1-0.2 0.1-0.3 0.2-0.5 0.2-0.2 0.4-0.4 0.7-0.5 0.2-0.1 1.2-0.5 2.1-0.9 0.3-0.1 0.7-0.3 0.9-0.4 0.9-0.4 1.9-1.1 0.6-2.2 -1.4-1.1-2.6-1.8-3.2-2.2 -0.1-0.1-0.2-0.1-0.3-0.2C122.4 113.1 122.3 112.3 122.1 110.3z" class="b"/><circle cx="90.9" cy="64.8" r="5" class="b"/><circle cx="119.8" cy="88.7" r="2.5" class="b"/></svg>