<svg xmlns="http://www.w3.org/2000/svg" width="137" height="133" viewBox="0 0 137 133" class="mainIcon">

	<style>.a{fill:#928158;}.b{fill:#E8C325;}</style>
	<style type="text/css">

		.a:hover {display:block;
		fill: #fff;
		transition-duration: 1s;
		}

		@media screen and (max-width : 150px) {
			.a {
			display:none;
			}
		}

	
	</style>


<g id="cancerLine"><g id="Cancer_Lines"><path d="M45.2 59.7c-0.4 0.3-1 0.3-1.4-0.1L16.6 33.5c-0.4-0.4-0.4-1.1 0-1.5 0.4-0.4 1.1-0.4 1.5 0L45.3 58.1c0.4 0.4 0.4 1.1 0 1.5C45.3 59.6 45.3 59.7 45.2 59.7z" class="a"/><path d="M60.7 79.1c-0.5 0.4-1.1 0.3-1.5-0.2l-7.8-9.7c-0.4-0.5-0.3-1.1 0.2-1.5s1.1-0.3 1.5 0.2l7.8 9.7C61.2 78.1 61.2 78.7 60.7 79.1z" class="a"/><path d="M67 115.9c-0.1 0.1-0.3 0.2-0.5 0.2 -0.6 0.1-1.1-0.3-1.2-0.8L60.6 90.6c-0.1-0.6 0.3-1.1 0.8-1.2 0.6-0.1 1.1 0.3 1.2 0.8l4.8 24.6C67.5 115.2 67.3 115.6 67 115.9z" class="a"/><path d="M118.5 97.8c-0.2 0.2-0.6 0.3-0.9 0.2l-49.1-12.3c-0.6-0.1-0.9-0.7-0.8-1.3 0.1-0.6 0.7-0.9 1.3-0.8l49.1 12.3c0.6 0.1 0.9 0.7 0.8 1.3C118.8 97.4 118.7 97.6 118.5 97.8z" class="a"/></g></g><g id="cancerDot"><g id="Cancer_dots"><path d="M21.2 22c1.2-1.8-0.2-2-1-2 -0.5 0-2.9-0.1-3.2-0.2 -0.3-0.1-0.6 0.1-1-0.4 -0.4-0.6-1.2-1.8-2.4-3.1 -1.1-1.3-1.8-0.2-2.2 0.7 -0.3 0.9-0.8 2-1.1 2.8 -0.3 0.8-0.7 0.9-1.1 1.1 -0.4 0.2-3.1 1.3-3.8 1.6 -0.3 0.1-0.4 0.3-0.5 0.6 -0.1 0.2-0.1 0.4 0 0.5 0 0.1 0.1 0.2 0.2 0.3 0.2 0.2 0.4 0.4 0.6 0.6 0.4 0.3 2.4 1.8 2.5 2 0.2 0.2 0.5 0.3 0.5 0.9 0 0.7 0 2.2 0.1 3.9 0.2 1.7 1.4 1.2 2.2 0.7 0.6-0.4 1.3-1 2-1.4 0.4-0.2 0.7-0.4 0.8-0.5 0.2-0.1 0.3-0.2 0.5-0.2 0.3-0.1 0.6 0 0.9 0.1 0.3 0.1 1.3 0.3 2.2 0.6 0.3 0.1 0.7 0.2 1 0.3 0.9 0.3 2.2 0.4 1.8-1.3 -0.4-1.7-0.9-3.1-1.1-3.8 0-0.1-0.1-0.2-0.1-0.3C19.6 24.4 20.1 23.7 21.2 22z" class="b"/><path d="M126.8 90.8c-0.7-1.4-1.3-0.7-1.6-0.2 -0.2 0.3-1.2 1.8-1.3 2 -0.1 0.1-0.2 0.4-0.6 0.4 -0.5 0-1.6 0.1-2.9 0.3s-0.8 1.1-0.4 1.6c0.4 0.5 0.9 1.3 1.3 1.7 0.4 0.5 0.3 0.7 0.3 1.1s-0.4 2.4-0.4 3c0 0.2 0 0.4 0.1 0.5 0.1 0.1 0.2 0.2 0.3 0.2 0.1 0 0.2 0 0.3 0 0.2 0 0.4-0.1 0.6-0.2 0.3-0.1 2-0.8 2.2-0.9 0.2 0 0.4-0.2 0.8 0 0.5 0.3 1.4 0.8 2.5 1.4s1.3-0.4 1.2-1.1c0-0.5-0.1-1.2-0.2-1.8 0-0.3 0-0.6 0-0.7 0-0.1 0-0.3 0-0.4 0.1-0.2 0.2-0.4 0.4-0.5 0.1-0.1 0.7-0.7 1.2-1.2 0.2-0.2 0.4-0.3 0.6-0.5 0.5-0.5 1.1-1.2-0.1-1.7 -1.2-0.4-2.3-0.6-2.8-0.7 -0.1 0-0.2-0.1-0.2-0.1C127.7 92.7 127.4 92.1 126.8 90.8z" class="b"/><circle cx="66.5" cy="120.8" r="2.3" class="b"/><circle cx="62" cy="84.7" r="2.5" class="b"/><circle cx="48.7" cy="64.1" r="2.8" class="b"/></g></g></svg>