<svg xmlns="http://www.w3.org/2000/svg" width="137" height="133" viewBox="0 0 137 133" id="capricorn" class="mainIcon">
	<style>.a{fill:#928158;}.b{fill:#E8C325;}</style>
	<style type="text/css">

		.a:hover {display:block;
		fill: #fff;
		transition-duration: 1s;
		}

		@media screen and (max-width : 150px) {
			.a {
			display:none;
			}
		}

	
	</style>
	<path d="M46 106.9c-0.2 0.1-0.4 0.1-0.6 0L10.7 90.9c-0.4-0.2-0.5-0.6-0.4-1 0.2-0.4 0.6-0.5 1-0.4l34.6 16c0.4 0.2 0.5 0.6 0.4 1C46.3 106.7 46.1 106.8 46 106.9z" class="a"/><path d="M104.5 116.8c-0.1 0-0.2 0.1-0.4 0.1l-45.7-6c-0.4-0.1-0.7-0.4-0.6-0.8 0.1-0.4 0.4-0.7 0.8-0.6l45.7 6c0.4 0.1 0.7 0.4 0.6 0.8C104.9 116.4 104.7 116.7 104.5 116.8z" class="a"/><path d="M113 113.1c-0.1 0.1-0.3 0.1-0.4 0 -0.4-0.1-0.7-0.4-0.6-0.8l1-5.7c0.1-0.4 0.4-0.7 0.8-0.6 0.4 0.1 0.7 0.4 0.6 0.8l-1 5.7C113.4 112.8 113.2 113 113 113.1z" class="a"/><path d="M115.8 96.6c-0.1 0.1-0.3 0.1-0.4 0 -0.4-0.1-0.7-0.4-0.6-0.8l10.1-64.2c0.1-0.4 0.4-0.7 0.8-0.6 0.4 0.1 0.7 0.4 0.6 0.8l-10.1 64.2C116.2 96.3 116 96.5 115.8 96.6z" class="a"/><path d="M125.1 20.5c-0.1 0.1-0.3 0.1-0.4 0 -0.4-0.1-0.6-0.5-0.6-0.9l1.2-5.3c0.1-0.4 0.5-0.6 0.9-0.6 0.4 0.1 0.6 0.5 0.6 0.9l-1.2 5.3C125.4 20.3 125.3 20.5 125.1 20.5z" class="a"/><path d="M71.7 63.4c-0.3 0.1-0.6 0.1-0.8-0.2 -0.3-0.3-0.3-0.8 0-1l46.2-44.6c0.3-0.3 0.8-0.3 1 0 0.3 0.3 0.3 0.8 0 1L71.9 63.2C71.9 63.3 71.8 63.3 71.7 63.4z" class="a"/><path d="M60.7 68L49.1 73c-0.4 0.2-0.8 0-1-0.4s0-0.8 0.4-1L60.2 66.7c0.4-0.2 0.8 0 1 0.4S61.1 67.9 60.7 68z" class="a"/><path d="M37.6 77.9l-12.3 5.2c-0.4 0.2-0.8 0-1-0.4 -0.2-0.4 0-0.8 0.4-1l12.3-5.2c0.4-0.2 0.8 0 1 0.4C38.2 77.3 38 77.7 37.6 77.9z" class="a"/><circle cx="42" cy="75.2" r="3.2" class="b"/><circle cx="36.2" cy="124.3" r="6.1" class="b"/><circle cx="110.1" cy="117.5" r="3.2" class="b"/><circle cx="119.9" cy="13.5" r="3.5" class="b"/><circle cx="7.2" cy="86.8" r="4.4" class="b"/><circle cx="18" cy="85.4" r="2.9" class="b"/><path d="M118.1 101.6c0.6-0.5 0.1-0.7-0.1-0.8 -0.2-0.1-1-0.3-1-0.3 -0.1 0-0.2 0-0.3-0.2 -0.1-0.2-0.2-0.7-0.5-1.3 -0.3-0.5-0.6-0.2-0.8 0 -0.2 0.3-0.5 0.6-0.6 0.8s-0.3 0.2-0.5 0.3c-0.2 0-1.1 0.1-1.4 0.2 -0.1 0-0.2 0.1-0.2 0.1 0 0.1-0.1 0.1-0.1 0.2 0 0 0 0.1 0 0.1 0 0.1 0.1 0.2 0.2 0.3 0.1 0.1 0.6 0.8 0.7 0.9 0 0.1 0.2 0.1 0.1 0.3 -0.1 0.2-0.2 0.7-0.3 1.3 -0.1 0.6 0.3 0.5 0.7 0.4 0.2-0.1 0.5-0.2 0.8-0.3 0.1 0 0.3-0.1 0.3-0.1 0.1 0 0.1 0 0.2 0 0.1 0 0.2 0.1 0.3 0.1 0.1 0 0.4 0.2 0.7 0.4 0.1 0.1 0.2 0.1 0.3 0.2 0.3 0.2 0.7 0.3 0.7-0.3s0-1.1 0-1.3c0 0 0-0.1 0-0.1C117.3 102.2 117.6 102.1 118.1 101.6z" class="b"/><path d="M129.6 26.6c0.9-0.8 0.2-1.1-0.2-1.2 -0.3-0.1-1.5-0.5-1.6-0.6s-0.3-0.1-0.4-0.4c-0.1-0.4-0.4-1.1-0.8-2s-0.9-0.4-1.2 0c-0.3 0.4-0.7 0.9-1 1.3 -0.2 0.4-0.5 0.4-0.7 0.4 -0.3 0-1.8 0.2-2.2 0.3 -0.2 0-0.3 0.1-0.4 0.2 -0.1 0.1-0.1 0.2-0.1 0.3 0 0.1 0 0.1 0 0.2 0.1 0.1 0.2 0.3 0.2 0.4 0.2 0.2 1 1.3 1 1.4 0.1 0.1 0.2 0.2 0.2 0.5 -0.1 0.4-0.3 1.1-0.5 2.1 -0.2 0.9 0.6 0.8 1 0.7 0.4-0.1 0.8-0.3 1.2-0.4 0.2-0.1 0.4-0.1 0.5-0.1 0.1 0 0.2 0 0.3-0.1 0.2 0 0.3 0.1 0.4 0.2 0.1 0.1 0.6 0.4 1.1 0.6 0.2 0.1 0.3 0.2 0.5 0.3 0.4 0.3 1.1 0.5 1.2-0.4 0.1-0.9 0-1.7 0-2.1 0-0.1 0-0.1 0-0.2C128.4 27.6 128.8 27.3 129.6 26.6z" class="b"/><path d="M132.4 8.3c0.9-0.8 0.2-1.1-0.2-1.2 -0.3-0.1-1.5-0.5-1.6-0.6 -0.1-0.1-0.3-0.1-0.4-0.4 -0.1-0.4-0.4-1.1-0.8-2 -0.4-0.8-0.9-0.4-1.2 0s-0.7 0.9-1 1.3c-0.2 0.4-0.5 0.4-0.7 0.4 -0.3 0-1.8 0.2-2.2 0.3 -0.2 0-0.3 0.1-0.4 0.2 -0.1 0.1-0.1 0.2-0.1 0.3 0 0.1 0 0.1 0 0.2 0.1 0.1 0.2 0.3 0.2 0.4 0.2 0.2 1 1.3 1 1.4 0.1 0.1 0.2 0.2 0.2 0.5 -0.1 0.4-0.3 1.1-0.5 2.1 -0.2 0.9 0.6 0.8 1 0.7 0.4-0.1 0.8-0.3 1.2-0.4 0.2-0.1 0.4-0.1 0.5-0.1 0.1 0 0.2 0 0.3-0.1 0.2 0 0.3 0.1 0.4 0.2 0.1 0.1 0.6 0.4 1.1 0.6 0.2 0.1 0.3 0.2 0.5 0.3 0.4 0.3 1.1 0.5 1.2-0.4 0.1-0.9 0-1.7 0-2.1 0-0.1 0-0.1 0-0.2C131.3 9.3 131.6 9.1 132.4 8.3z" class="b"/><path d="M69 65.9c0.6-0.5 0.1-0.7-0.1-0.8 -0.2-0.1-1-0.3-1.1-0.4 -0.1 0-0.2 0-0.3-0.2 -0.1-0.2-0.2-0.7-0.5-1.3s-0.6-0.2-0.8 0c-0.2 0.3-0.5 0.6-0.6 0.8 -0.2 0.2-0.3 0.2-0.5 0.3 -0.2 0-1.2 0.1-1.4 0.2 -0.1 0-0.2 0.1-0.2 0.1 0 0.1-0.1 0.1-0.1 0.2 0 0 0 0.1 0 0.1 0 0.1 0.1 0.2 0.2 0.3 0.1 0.1 0.6 0.8 0.7 0.9s0.2 0.2 0.1 0.4c-0.1 0.2-0.2 0.8-0.3 1.4 -0.1 0.6 0.4 0.6 0.7 0.4 0.2-0.1 0.5-0.2 0.8-0.3 0.1 0 0.3-0.1 0.3-0.1 0.1 0 0.1 0 0.2 0 0.1 0 0.2 0.1 0.3 0.1 0.1 0 0.4 0.2 0.7 0.4 0.1 0.1 0.2 0.1 0.3 0.2 0.3 0.2 0.7 0.3 0.8-0.3 0-0.6 0-1.1 0-1.4 0 0 0-0.1 0-0.1C68.2 66.6 68.5 66.4 69 65.9z" class="b"/><path d="M53.6 109c0.6-0.5 0.1-0.7-0.1-0.8 -0.2-0.1-1-0.3-1.1-0.4 -0.1 0-0.2 0-0.3-0.2 -0.1-0.2-0.2-0.7-0.5-1.3s-0.6-0.2-0.8 0c-0.2 0.3-0.5 0.6-0.6 0.8s-0.3 0.2-0.5 0.3c-0.2 0-1.2 0.1-1.4 0.2 -0.1 0-0.2 0.1-0.2 0.1 0 0.1-0.1 0.1-0.1 0.2 0 0 0 0.1 0 0.1 0 0.1 0.1 0.2 0.2 0.3 0.1 0.1 0.6 0.8 0.7 0.9 0 0.1 0.2 0.2 0.1 0.4 -0.1 0.2-0.2 0.8-0.3 1.4 -0.1 0.6 0.4 0.6 0.7 0.4 0.2-0.1 0.5-0.2 0.8-0.3 0.1 0 0.3-0.1 0.3-0.1 0.1 0 0.1 0 0.2 0 0.1 0 0.2 0.1 0.3 0.1 0.1 0 0.4 0.2 0.7 0.4 0.1 0.1 0.2 0.1 0.3 0.2 0.3 0.2 0.7 0.3 0.8-0.3 0-0.6 0-1.1 0-1.4 0 0 0-0.1 0-0.1C52.8 109.7 53.1 109.5 53.6 109z" class="b"/></svg>