<svg xmlns="http://www.w3.org/2000/svg" width="137" height="133" viewBox="0 0 137 133" id="leo"  class="mainIcon">
	<style>.a{fill:#928158;}.b{fill:#E8C325;}</style>

	<style type="text/css">

		.a:hover {display:block;
		fill: #fff;
		transition-duration: 1s;
		}

		@media screen and (max-width : 150px) {
			.a {
			display:none;
			}
		}

	
	</style>
	<path d="M10.4 116.5c-0.2 0-0.3 0-0.5-0.1 -0.4-0.3-0.6-0.8-0.3-1.3l21.6-34.4c0.3-0.4 0.8-0.6 1.3-0.3 0.4 0.3 0.6 0.8 0.3 1.3l-21.6 34.4C11 116.4 10.7 116.5 10.4 116.5z" class="a"/><path d="M42.1 72.5c-0.4 0-0.7-0.2-0.9-0.6 -0.2-0.5 0.1-1 0.5-1.2l47.8-17.8c0.5-0.2 1 0.1 1.2 0.5 0.2 0.5-0.1 1-0.5 1.2l-47.8 17.8C42.3 72.5 42.2 72.5 42.1 72.5z" class="a"/><path d="M93.6 47.2c-0.4 0-0.8-0.3-0.9-0.8l-2.2-12.2c-0.1-0.5 0.2-1 0.7-1.1 0.5-0.1 1 0.2 1.1 0.7l2.2 12.2c0.1 0.5-0.2 1-0.7 1.1C93.7 47.1 93.7 47.2 93.6 47.2z" class="a"/><path d="M93.6 27.4c-0.2 0-0.4-0.1-0.6-0.2 -0.4-0.3-0.4-0.9-0.1-1.3l13-15.2c0.3-0.4 0.9-0.4 1.3-0.1 0.4 0.3 0.4 0.9 0.1 1.3L94.3 27C94.1 27.2 93.9 27.4 93.6 27.4z" class="a"/><path d="M119.8 12.1c-0.2 0-0.4-0.1-0.5-0.2l-6.6-4.6c-0.4-0.3-0.5-0.9-0.2-1.3 0.3-0.4 0.9-0.5 1.3-0.2l6.6 4.6c0.4 0.3 0.5 0.9 0.2 1.3C120.4 12 120.1 12.1 119.8 12.1z" class="a"/><path d="M109.6 57.8c-0.1 0-0.2 0-0.3 0l-9.5-3c-0.5-0.2-0.8-0.7-0.6-1.2 0.2-0.5 0.7-0.8 1.2-0.6l9.5 3c0.5 0.2 0.8 0.7 0.6 1.2C110.4 57.6 110 57.8 109.6 57.8z" class="a"/><path d="M125.4 77.1c-0.4 0-0.7-0.2-0.9-0.6l-5.6-15.7c-0.2-0.5 0.1-1 0.6-1.2 0.5-0.2 1 0.1 1.2 0.6l5.6 15.7c0.2 0.5-0.1 1-0.6 1.2C125.6 77.1 125.5 77.1 125.4 77.1z" class="a"/><path d="M55.9 96.5c-0.4 0-0.8-0.3-0.9-0.7 -0.1-0.5 0.2-1 0.7-1.1l64.6-12.3c0.5-0.1 1 0.2 1.1 0.7 0.1 0.5-0.2 1-0.7 1.1L56.1 96.5C56 96.5 56 96.5 55.9 96.5z" class="a"/><path d="M15.7 117.7c-0.3 0-0.6-0.1-0.8-0.4 -0.3-0.4-0.2-1 0.2-1.3l26.4-18c0.4-0.3 1-0.2 1.3 0.2 0.3 0.4 0.2 1-0.2 1.3l-26.4 18C16.1 117.7 15.9 117.7 15.7 117.7z" class="a"/><circle cx="94.9" cy="52.3" r="2.8" class="b"/><circle cx="108.2" cy="6.9" r="2.1" class="b"/><circle cx="124.9" cy="15.4" r="3.7" class="b"/><circle cx="89.6" cy="29.9" r="2.8" class="b"/><circle cx="114.6" cy="57.5" r="3.3" class="b"/><circle cx="127.2" cy="81.2" r="3.8" class="b"/><circle cx="36.5" cy="76.2" r="4.6" class="b"/><circle cx="49.3" cy="97" r="4.2" class="b"/><circle cx="9.6" cy="124.2" r="6.1" class="b"/></svg>