<svg xmlns="http://www.w3.org/2000/svg" width="137" height="133" viewBox="0 0 137 133" class="mainIcon">
	<style>.a{fill:#928158;}.b{fill:#E8C325;}</style>
<style type="text/css">

		.a:hover {display:block;
		fill: #fff;
		transition-duration: 1s;
		}

		@media screen and (max-width : 150px) {
			.a {
			display:none;
			}
		}

	
	</style>
	<path d="M96 73.9c-0.5 0-1-0.4-1-0.9l-1.7-24.3c0-0.6 0.4-1 0.9-1.1 0.6 0 1 0.4 1.1 0.9l1.7 24.3c0 0.6-0.4 1-0.9 1.1C96 73.9 96 73.9 96 73.9z" class="a"/><path d="M94.3 77.5c-0.3 0-0.6-0.1-0.8-0.4L64.2 35.8c-0.3-0.5-0.2-1.1 0.2-1.4 0.5-0.3 1.1-0.2 1.4 0.2l29.3 41.3c0.3 0.5 0.2 1.1-0.2 1.4C94.7 77.5 94.5 77.5 94.3 77.5z" class="a"/><path d="M88.7 41.2c-0.1 0-0.2 0-0.3-0.1l-20.3-7c-0.5-0.2-0.8-0.7-0.6-1.3 0.2-0.5 0.7-0.8 1.3-0.6l20.3 7c0.5 0.2 0.8 0.7 0.6 1.3C89.5 41 89.1 41.2 88.7 41.2z" class="a"/><path d="M82.3 95.2c-0.3 0-0.5-0.1-0.7-0.3 -0.4-0.4-0.4-1 0-1.4l12-11.7c0.4-0.4 1-0.4 1.4 0s0.4 1 0 1.4l-12 11.7C82.8 95.1 82.6 95.2 82.3 95.2z" class="a"/><path d="M56 52.9c-0.1 0-0.2 0-0.3 0 -0.5-0.2-0.8-0.7-0.7-1.2l4.7-15.2c0.2-0.5 0.7-0.8 1.3-0.7 0.5 0.2 0.8 0.7 0.7 1.3l-4.7 15.2C56.8 52.6 56.4 52.9 56 52.9z" class="a"/><path d="M47.7 68.5c-0.2 0-0.4-0.1-0.6-0.2 -0.4-0.3-0.5-1-0.2-1.4l5-6.8c0.3-0.4 1-0.5 1.4-0.2 0.4 0.3 0.5 1 0.2 1.4l-5 6.8C48.3 68.4 48 68.5 47.7 68.5z" class="a"/><path d="M43 68.5c-0.1 0-0.2 0-0.4-0.1l-5.3-2c-0.5-0.2-0.8-0.8-0.6-1.3 0.2-0.5 0.8-0.8 1.3-0.6l5.3 2c0.5 0.2 0.8 0.8 0.6 1.3C43.8 68.3 43.4 68.5 43 68.5z" class="a"/><path d="M65.5 29.7c1.2-0.4 0.7-1 0.3-1.3 -0.2-0.2-1.3-1.1-1.4-1.3 -0.1-0.1-0.3-0.2-0.3-0.5 0-0.4 0.1-1.3 0.1-2.3 0-1-0.8-0.8-1.2-0.5 -0.5 0.3-1.1 0.6-1.5 0.9s-0.6 0.2-0.9 0.1c-0.3-0.1-1.9-0.5-2.3-0.6 -0.2 0-0.3 0-0.4 0.1 -0.1 0-0.2 0.1-0.2 0.2 0 0.1 0 0.1 0 0.2 0 0.2 0 0.4 0.1 0.5 0.1 0.3 0.4 1.7 0.4 1.8 0 0.2 0.1 0.3-0.1 0.6 -0.3 0.3-0.8 1-1.4 1.9 -0.6 0.9 0.2 1.1 0.7 1.1 0.4 0 1 0 1.4 0.1 0.3 0 0.5 0 0.5 0.1 0.1 0 0.2 0 0.3 0.1 0.2 0.1 0.3 0.2 0.4 0.3 0.1 0.1 0.5 0.6 0.8 1.1 0.1 0.2 0.2 0.3 0.3 0.5 0.3 0.5 0.9 1 1.3 0.1 0.5-0.9 0.7-1.7 0.9-2.1 0-0.1 0.1-0.1 0.1-0.2C63.9 30.2 64.4 30.1 65.5 29.7z" class="b"/><path d="M82.7 100.3c1.2-0.4 0.7-1 0.3-1.3 -0.2-0.2-1.3-1.1-1.4-1.3 -0.1-0.1-0.3-0.2-0.3-0.5 0-0.4 0.1-1.3 0.1-2.3 0-1-0.8-0.8-1.2-0.5 -0.5 0.3-1.1 0.6-1.5 0.9 -0.4 0.3-0.6 0.2-0.9 0.1 -0.3-0.1-1.9-0.5-2.3-0.6 -0.2 0-0.3 0-0.4 0.1 -0.1 0-0.2 0.1-0.2 0.2 0 0.1 0 0.1 0 0.2 0 0.2 0 0.4 0.1 0.5 0.1 0.3 0.4 1.7 0.4 1.8 0 0.2 0.1 0.3-0.1 0.6 -0.3 0.3-0.8 1-1.4 1.9 -0.6 0.9 0.2 1.1 0.7 1.1 0.4 0 1 0 1.4 0.1 0.3 0 0.5 0 0.5 0.1 0.1 0 0.2 0 0.3 0.1 0.2 0.1 0.3 0.2 0.4 0.3 0.1 0.1 0.5 0.6 0.8 1.1 0.1 0.2 0.2 0.3 0.3 0.5 0.3 0.5 0.9 1 1.3 0.1 0.5-0.9 0.7-1.7 0.9-2.1 0-0.1 0.1-0.1 0.1-0.2C81.1 100.8 81.6 100.7 82.7 100.3z" class="b"/><circle cx="34" cy="64.1" r="1.7" class="b"/><circle cx="45" cy="72.9" r="2.7" class="b"/><circle cx="56" cy="55.9" r="2.3" class="b"/><circle cx="95.2" cy="41.5" r="4.5" class="b"/><circle cx="99.7" cy="79.2" r="2.7" class="b"/><circle cx="78.5" cy="110.2" r="2.3" class="b"/></svg>