<svg xmlns="http://www.w3.org/2000/svg" width="137" height="133" viewBox="0 0 137 133" class="mainIcon">

	<style>.a{fill:#928158;}.b{fill:#E8C325;}</style>
<style type="text/css">

		.a:hover {display:block;
		fill: #fff;
		transition-duration: 1s;
		}

		@media screen and (max-width : 150px) {
			.a {
			display:none;
			}
		}

	
	</style>
	<path d="M19.3 88.8L14.1 92.8c-0.3 0.3-0.4 0.7-0.1 1.1 0.1 0.2 0.3 0.3 0.5 0.3 0.2 0 0.4 0 0.6-0.2l5.2-4c0.3-0.3 0.4-0.7 0.1-1.1C20.1 88.6 19.7 88.6 19.3 88.8z" class="a"/><path d="M6.7 101.8c0.2 0 0.4 0 0.6-0.2l1.6-1.3c0.3-0.3 0.4-0.7 0.1-1.1 -0.3-0.3-0.7-0.4-1.1-0.1l-1.6 1.3c-0.3 0.3-0.4 0.7-0.1 1.1C6.3 101.6 6.5 101.7 6.7 101.8z" class="a"/><path d="M8.3 105.6c-0.2-0.4-0.7-0.5-1-0.2 -0.4 0.2-0.5 0.7-0.2 1l7.3 11.7c0.1 0.2 0.3 0.3 0.5 0.4 0.2 0 0.3 0 0.5-0.1 0.4-0.2 0.5-0.7 0.2-1L8.3 105.6z" class="a"/><path d="M34.4 122.7l-11-0.9c-0.4 0-0.8 0.3-0.8 0.7 0 0.4 0.3 0.8 0.7 0.8 0 0 0 0 0 0l11 0.9c0.4 0 0.8-0.3 0.8-0.7C35.1 123.1 34.8 122.7 34.4 122.7z" class="a"/><path d="M47.1 121.2l-5.9 1.3c-0.4 0.1-0.7 0.5-0.6 0.9 0.1 0.3 0.3 0.6 0.6 0.6 0.1 0 0.2 0 0.3 0l5.9-1.3c0.4-0.1 0.7-0.5 0.6-0.9C47.9 121.4 47.5 121.1 47.1 121.2z" class="a"/><path d="M56.9 99.5c-0.4-0.1-0.8 0.2-0.9 0.6l-3.8 17.2c-0.1 0.4 0.2 0.8 0.6 0.9 0 0 0 0 0.1 0 0.4 0.1 0.8-0.2 0.8-0.6l3.8-17.2C57.6 100 57.3 99.5 56.9 99.5z" class="a"/><path d="M60.9 76.7c-0.4-0.1-0.8 0.2-0.9 0.6l-2.9 14.1c-0.1 0.4 0.2 0.8 0.6 0.9 0 0 0 0 0.1 0 0.4 0.1 0.8-0.2 0.8-0.6l2.9-14.1C61.6 77.2 61.3 76.8 60.9 76.7z" class="a"/><path d="M75.5 55.3c-0.3-0.3-0.8-0.2-1.1 0.1L63.7 68.9c-0.3 0.3-0.2 0.8 0.1 1.1 0.1 0.1 0.2 0.1 0.4 0.2 0.3 0 0.5-0.1 0.7-0.3l10.7-13.4C75.9 56.1 75.8 55.6 75.5 55.3z" class="a"/><path d="M87 43.5c-0.3-0.3-0.8-0.3-1.1-0.1l-5.7 5c-0.3 0.3-0.3 0.8-0.1 1.1 0.1 0.1 0.3 0.2 0.5 0.2 0.2 0 0.4 0 0.6-0.2l5.7-5C87.2 44.3 87.3 43.8 87 43.5z" class="a"/><path d="M95.4 36.9l32-22.1c0.3-0.2 0.4-0.7 0.2-1.1 -0.2-0.3-0.7-0.4-1.1-0.2L94.6 35.7c-0.3 0.2-0.4 0.7-0.2 1.1 0.1 0.2 0.3 0.3 0.5 0.3C95.1 37.1 95.3 37 95.4 36.9z" class="a"/><path d="M128.2 32.4c-0.1-0.4-0.5-0.7-0.9-0.6l-31.1 6.3c-0.4 0.1-0.7 0.5-0.6 0.9 0.1 0.3 0.3 0.6 0.6 0.6 0.1 0 0.2 0 0.2 0l31.1-6.2C128 33.2 128.3 32.8 128.2 32.4z" class="a"/><path d="M124.2 51.1L95.1 40.8c-0.4-0.1-0.8 0.1-1 0.5 -0.1 0.4 0.1 0.8 0.5 1l29.1 10.3c0.1 0 0.1 0 0.2 0 0.3 0 0.7-0.2 0.8-0.5C124.8 51.7 124.6 51.2 124.2 51.1z" class="a"/><path d="M27.8 89.3c1.3 0.2 1-0.6 0.9-1 -0.1-0.3-0.6-1.6-0.6-1.8 0-0.2-0.2-0.3 0-0.6 0.2-0.4 0.7-1.1 1.2-2 0.5-0.9-0.3-1-0.9-1 -0.5 0-1.3 0-1.7 0 -0.5 0-0.6-0.2-0.8-0.4 -0.2-0.2-1.4-1.4-1.7-1.7 -0.1-0.1-0.3-0.2-0.4-0.2 -0.1 0-0.2 0-0.3 0.1 -0.1 0-0.1 0.1-0.1 0.2 -0.1 0.1-0.1 0.3-0.2 0.5 -0.1 0.3-0.4 1.7-0.5 1.8 -0.1 0.1 0 0.4-0.3 0.5 -0.4 0.2-1.2 0.5-2.1 1s-0.3 1 0.1 1.3c0.3 0.2 0.8 0.5 1.2 0.7 0.2 0.1 0.4 0.3 0.4 0.3 0.1 0.1 0.2 0.1 0.2 0.2 0.1 0.2 0.1 0.3 0.2 0.5 0 0.2 0.1 0.8 0.2 1.3 0 0.2 0 0.4 0.1 0.6 0.1 0.5 0.3 1.3 1.1 0.7 0.8-0.6 1.5-1.2 1.8-1.5 0.1-0.1 0.1-0.1 0.2-0.1C26.2 88.9 26.7 89 27.8 89.3z" class="b"/><path d="M92 43.4c1 0.2 0.8-0.4 0.7-0.8 -0.1-0.2-0.5-1.2-0.5-1.3 0-0.1-0.1-0.2 0-0.5 0.2-0.3 0.5-0.8 0.9-1.5 0.3-0.7-0.2-0.8-0.7-0.8 -0.4 0-1 0-1.3 0s-0.5-0.1-0.6-0.3c-0.2-0.1-1.1-1.1-1.3-1.3 -0.1-0.1-0.2-0.1-0.3-0.1 -0.1 0-0.2 0-0.2 0.1 0 0-0.1 0.1-0.1 0.1 -0.1 0.1-0.1 0.2-0.1 0.4 -0.1 0.2-0.3 1.3-0.4 1.4s0 0.3-0.3 0.4c-0.3 0.1-0.9 0.4-1.6 0.7 -0.7 0.4-0.3 0.8 0.1 1 0.3 0.2 0.6 0.4 0.9 0.6 0.2 0.1 0.3 0.2 0.3 0.2 0.1 0.1 0.1 0.1 0.2 0.2 0.1 0.1 0.1 0.2 0.1 0.4 0 0.1 0.1 0.6 0.1 1 0 0.2 0 0.3 0 0.4 0 0.4 0.2 1 0.9 0.5 0.6-0.4 1.1-0.9 1.4-1.1 0 0 0.1-0.1 0.1-0.1C90.7 43.2 91.1 43.2 92 43.4z" class="b"/><path d="M21.4 125c1.3 0.2 1-0.6 0.9-1 -0.1-0.3-0.6-1.6-0.6-1.8 0-0.2-0.2-0.3 0-0.6 0.2-0.4 0.7-1.1 1.2-2 0.5-0.9-0.3-1-0.9-1 -0.5 0-1.3 0-1.7 0 -0.5 0-0.6-0.2-0.8-0.4 -0.2-0.2-1.4-1.4-1.7-1.7 -0.1-0.1-0.3-0.2-0.4-0.2 -0.1 0-0.2 0-0.3 0.1 -0.1 0-0.1 0.1-0.1 0.2 -0.1 0.1-0.1 0.3-0.2 0.5 -0.1 0.3-0.4 1.7-0.5 1.8 -0.1 0.1 0 0.4-0.3 0.5 -0.4 0.2-1.2 0.5-2.1 1 -0.9 0.5-0.3 1 0.1 1.3 0.3 0.2 0.8 0.5 1.2 0.7 0.2 0.1 0.4 0.3 0.4 0.3 0.1 0.1 0.2 0.1 0.2 0.2 0.1 0.2 0.1 0.3 0.2 0.5 0 0.2 0.1 0.8 0.2 1.3 0 0.2 0 0.4 0.1 0.6 0.1 0.5 0.3 1.3 1.1 0.7 0.8-0.6 1.5-1.2 1.8-1.5 0.1-0.1 0.1-0.1 0.2-0.1C19.8 124.7 20.3 124.8 21.4 125z" class="b"/><circle cx="11.5" cy="97.3" r="1.7" class="b"/><circle cx="4.8" cy="104.2" r="1.4" class="b"/><circle cx="37.6" cy="123.9" r="1.3" class="b"/><circle cx="51.7" cy="121" r="1.5" class="b"/><circle cx="57.4" cy="95.2" r="1.8" class="b"/><circle cx="61.8" cy="72.9" r="2" class="b"/><circle cx="78.1" cy="52.5" r="1.5" class="b"/><circle cx="131.7" cy="31.5" r="2.2" class="b"/><circle cx="130.1" cy="12.5" r="1.9" class="b"/><circle cx="127.3" cy="52.3" r="1.8" class="b"/></svg>