<svg xmlns="http://www.w3.org/2000/svg" width="137" height="133" viewBox="0 0 137 133" class="mainIcon">

	<style>.a{fill:#928158;}.b{fill:#E8C325;}</style>
<style type="text/css">

		.a:hover {display:block;
		fill: #fff;
		transition-duration: 1s;
		}

		@media screen and (max-width : 150px) {
			.a {
			display:none;
			}
		}

	
	</style>
	<path d="M60.4 38.2c-0.1 0-0.3-0.1-0.4-0.2L32.6 13.6c-0.3-0.3-0.4-0.8-0.1-1.2 0.3-0.3 0.8-0.4 1.2-0.1l27.5 24.4c0.3 0.3 0.4 0.8 0.1 1.2C61 38.2 60.7 38.3 60.4 38.2z" class="a"/><path d="M79.3 75.1c-0.3-0.1-0.5-0.2-0.6-0.5L66.3 46c-0.2-0.4 0-0.9 0.4-1.1 0.4-0.2 0.9 0 1.1 0.4l12.3 28.6c0.2 0.4 0 0.9-0.4 1.1C79.6 75.1 79.4 75.1 79.3 75.1z" class="a"/><path d="M94 92.6c-0.1 0-0.3-0.1-0.4-0.2l-9.5-8.9c-0.3-0.3-0.4-0.8 0-1.2 0.3-0.3 0.8-0.4 1.2 0l9.5 8.9c0.3 0.3 0.4 0.8 0 1.2C94.6 92.5 94.3 92.6 94 92.6z" class="a"/><path d="M104.2 96.8c-0.4-0.1-0.7-0.5-0.7-0.9 0.1-0.5 0.5-0.8 0.9-0.7l19.2 2.2c0.5 0.1 0.8 0.5 0.7 0.9 -0.1 0.5-0.5 0.8-0.9 0.7l-19.2-2.2C104.3 96.8 104.2 96.8 104.2 96.8z" class="a"/><path d="M127.4 106.9c-0.5-0.1-0.7-0.5-0.6-1l0.5-2.2c0.1-0.5 0.5-0.7 1-0.6 0.5 0.1 0.7 0.5 0.6 1l-0.5 2.2C128.3 106.7 127.8 107 127.4 106.9z" class="a"/><path d="M82 105.9c-0.2 0-0.4-0.2-0.5-0.4 -0.2-0.4-0.1-0.9 0.3-1.2l10.5-6.5c0.4-0.2 0.9-0.1 1.2 0.3 0.2 0.4 0.1 0.9-0.3 1.2l-10.5 6.6C82.4 105.9 82.2 106 82 105.9z" class="a"/><path d="M83.3 121c-0.3-0.1-0.5-0.2-0.6-0.5l-3-7.2c-0.2-0.4 0-0.9 0.5-1.1 0.4-0.2 0.9 0 1.1 0.5l3 7.2c0.2 0.4 0 0.9-0.5 1.1C83.6 121 83.4 121.1 83.3 121z" class="a"/><path d="M76.8 77.1c-0.1 0-0.1 0-0.2-0.1l-8.2-4.3c-0.4-0.2-0.6-0.7-0.4-1.1s0.7-0.6 1.1-0.4l8.2 4.3c0.4 0.2 0.6 0.7 0.4 1.1C77.6 77 77.2 77.2 76.8 77.1z" class="a"/><path d="M56.3 66.4c-0.1 0-0.2-0.1-0.3-0.1L11.2 39.5c-0.4-0.2-0.5-0.7-0.3-1.1 0.2-0.4 0.8-0.5 1.1-0.3L56.9 64.9c0.4 0.2 0.5 0.8 0.3 1.1C57 66.4 56.7 66.5 56.3 66.4z" class="a"/><path d="M32.8 10.9c1.3-0.1 0.9-0.8 0.6-1.2 -0.2-0.2-1.1-1.4-1.1-1.5C32.2 8 32 7.9 32.1 7.6c0.1-0.4 0.4-1.3 0.6-2.3 0.2-1-0.6-0.9-1.1-0.7 -0.5 0.2-1.2 0.4-1.7 0.5 -0.5 0.2-0.7 0-0.9-0.1 -0.3-0.1-1.8-1-2.2-1.1 -0.2-0.1-0.3-0.1-0.5 0 -0.1 0-0.2 0.1-0.3 0.2 0 0.1-0.1 0.1-0.1 0.2 0 0.2 0 0.4 0 0.5 0 0.3 0.1 1.8 0 1.9 0 0.2 0.1 0.4-0.2 0.6 -0.3 0.3-1 0.8-1.8 1.5 -0.7 0.7 0 1.1 0.5 1.3 0.4 0.1 0.9 0.3 1.4 0.4 0.2 0.1 0.4 0.1 0.5 0.2 0.1 0 0.2 0.1 0.3 0.1 0.1 0.1 0.2 0.3 0.3 0.4 0.1 0.1 0.3 0.7 0.6 1.2 0.1 0.2 0.2 0.4 0.2 0.6 0.2 0.5 0.7 1.2 1.3 0.4 0.6-0.8 1.1-1.6 1.3-1.9 0-0.1 0.1-0.1 0.1-0.1C31.1 11.1 31.7 11 32.8 10.9z" class="b"/><path d="M65.6 72.7c1.3-0.1 0.9-0.8 0.6-1.2 -0.2-0.2-1.1-1.4-1.1-1.5 -0.1-0.1-0.3-0.3-0.2-0.6 0.1-0.4 0.4-1.3 0.6-2.3 0.2-1-0.6-0.9-1.1-0.7 -0.5 0.2-1.2 0.4-1.7 0.5s-0.7 0-0.9-0.1c-0.3-0.1-1.8-1-2.2-1.1 -0.2-0.1-0.3-0.1-0.5 0 -0.1 0-0.2 0.1-0.3 0.2 0 0.1-0.1 0.1-0.1 0.2 0 0.2 0 0.4 0 0.5 0 0.3 0.1 1.8 0 1.9 0 0.2 0.1 0.4-0.2 0.6 -0.3 0.3-1 0.8-1.8 1.5 -0.7 0.7 0 1.1 0.5 1.3 0.4 0.1 0.9 0.3 1.4 0.4 0.2 0.1 0.4 0.1 0.5 0.2 0.1 0 0.2 0.1 0.3 0.1 0.1 0.1 0.2 0.3 0.3 0.4 0.1 0.1 0.3 0.7 0.6 1.2 0.1 0.2 0.2 0.4 0.2 0.6 0.2 0.5 0.7 1.2 1.3 0.4 0.6-0.8 1.1-1.6 1.3-1.9 0-0.1 0.1-0.1 0.1-0.1C63.9 72.8 64.4 72.8 65.6 72.7z" class="b"/><path d="M102.2 98.3c1.3-0.1 0.9-0.8 0.6-1.2 -0.2-0.2-1.1-1.4-1.1-1.5 -0.1-0.1-0.3-0.3-0.2-0.6 0.1-0.4 0.4-1.3 0.6-2.3 0.2-1-0.6-0.9-1.1-0.7 -0.5 0.2-1.2 0.4-1.7 0.5s-0.7 0-0.9-0.1c-0.3-0.1-1.8-1-2.2-1.1 -0.2-0.1-0.3-0.1-0.5 0 -0.1 0-0.2 0.1-0.3 0.2 0 0.1-0.1 0.1-0.1 0.2 0 0.2 0 0.4 0 0.5 0 0.3 0.1 1.8 0 1.9s0.1 0.4-0.2 0.6c-0.3 0.3-1 0.8-1.8 1.5 -0.7 0.7 0 1.1 0.5 1.3 0.4 0.1 0.9 0.3 1.4 0.4 0.2 0.1 0.4 0.1 0.5 0.2 0.1 0 0.2 0.1 0.3 0.1 0.1 0.1 0.2 0.3 0.3 0.4 0.1 0.1 0.3 0.7 0.6 1.2 0.1 0.2 0.2 0.4 0.2 0.6 0.2 0.5 0.7 1.2 1.3 0.4 0.6-0.8 1.1-1.6 1.3-1.9 0-0.1 0.1-0.1 0.1-0.1C100.5 98.4 101 98.4 102.2 98.3z" class="b"/><circle cx="65.2" cy="41.3" r="2.8" class="b"/><circle cx="81.4" cy="79.7" r="2.4" class="b"/><circle cx="77.6" cy="108.4" r="1.5" class="b"/><circle cx="89.6" cy="126.1" r="3.7" class="b"/><circle cx="126" cy="113.2" r="3.1" class="b"/><circle cx="129" cy="99.3" r="1.7" class="b"/></svg>