<svg xmlns="http://www.w3.org/2000/svg" width="137" height="133" viewBox="0 0 137 133" id="virgo"  class="mainIcon">

	<style>.a{fill:#928158;}.b{fill:#E8C325;}</style>

	<style type="text/css">

		.a:hover {display:block;
		fill: #fff;
		transition-duration: 1s;
		}

		@media screen and (max-width : 150px) {
			.a {
			display:none;
			}
		}

	
	</style>


	<path d="M34.7 79.9c-0.1 0-0.2 0.1-0.3 0.1L8.2 85c-0.8 0.2-1.5-0.4-1.7-1.2 -0.2-0.8 0.4-1.5 1.2-1.7l26.2-5c0.8-0.2 1.6 0.4 1.7 1.2C35.7 78.9 35.3 79.6 34.7 79.9z" class="a"/><path d="M65 46.5c-0.6 0.3-1.3 0.1-1.7-0.5L48.5 25.3c-0.5-0.7-0.3-1.6 0.3-2 0.7-0.5 1.6-0.3 2 0.3l14.8 20.6c0.5 0.7 0.3 1.6-0.3 2C65.2 46.4 65.1 46.4 65 46.5z" class="a"/><path d="M84 59.6c-0.4 0.1-0.8 0.2-1.1 0l-12.2-5.5c-0.7-0.3-1.1-1.2-0.7-1.9 0.3-0.7 1.2-1.1 1.9-0.7l12.2 5.5c0.7 0.3 1.1 1.2 0.7 1.9C84.6 59.2 84.3 59.5 84 59.6z" class="a"/><path d="M103.7 57.8l-9 3.7c-0.7 0.3-1.6 0-1.9-0.8 -0.3-0.7 0-1.6 0.8-1.9l9-3.7c0.7-0.3 1.6 0 1.9 0.8S104.4 57.5 103.7 57.8z" class="a"/><path d="M111.3 51c-0.5 0.2-1.1 0.1-1.6-0.3 -0.6-0.6-0.6-1.5 0-2.1l13.2-13.8c0.6-0.6 1.5-0.6 2.1 0 0.6 0.6 0.6 1.5 0 2.1l-13.2 13.8C111.7 50.8 111.5 50.9 111.3 51z" class="a"/><path d="M73.6 82.7c-0.4 0.2-0.9 0.1-1.3-0.1 -0.7-0.4-0.9-1.3-0.5-2l10.4-16.8c0.4-0.7 1.3-0.9 2-0.5 0.7 0.4 0.9 1.3 0.5 2L74.3 82.1C74.1 82.4 73.9 82.6 73.6 82.7z" class="a"/><path d="M64.7 109.4c-0.3 0.1-0.6 0.1-0.9 0.1 -0.8-0.2-1.2-1-1-1.8l4.5-17c0.2-0.8 1-1.2 1.8-1 0.8 0.2 1.2 1 1 1.8l-4.5 17C65.4 108.9 65.1 109.3 64.7 109.4z" class="a"/><path d="M63.3 87c-0.3 0.1-0.6 0.1-1 0l-17.7-5.3c-0.8-0.2-1.2-1-1-1.8 0.2-0.8 1-1.2 1.8-1l17.7 5.3c0.8 0.2 1.2 1 1 1.8C64 86.5 63.7 86.8 63.3 87z" class="a"/><path d="M49.7 19.7c0.8-0.7 0.2-0.9-0.2-1.1 -0.2-0.1-1.3-0.4-1.4-0.5 -0.1-0.1-0.3-0.1-0.4-0.3 -0.1-0.3-0.3-1-0.7-1.8 -0.3-0.8-0.8-0.3-1.1 0 -0.3 0.4-0.6 0.8-0.9 1.1 -0.2 0.3-0.4 0.3-0.6 0.3s-1.6 0.2-1.9 0.2c-0.1 0-0.2 0.1-0.3 0.2 -0.1 0.1-0.1 0.1-0.1 0.2 0 0.1 0 0.1 0 0.2 0 0.1 0.1 0.3 0.2 0.4 0.1 0.2 0.8 1.1 0.9 1.2 0.1 0.1 0.2 0.2 0.1 0.5 -0.1 0.3-0.3 1-0.5 1.8s0.5 0.7 0.9 0.6c0.3-0.1 0.7-0.3 1.1-0.4 0.2-0.1 0.4-0.1 0.4-0.1 0.1 0 0.2 0 0.3 0 0.2 0 0.3 0.1 0.4 0.1 0.1 0.1 0.5 0.3 0.9 0.6 0.1 0.1 0.3 0.2 0.4 0.3 0.4 0.2 1 0.5 1-0.4 0.1-0.8 0-1.5 0-1.9 0-0.1 0-0.1 0-0.2C48.6 20.6 49 20.3 49.7 19.7z" class="b"/><path d="M73 86.8c0.8-0.7 0.2-0.9-0.2-1.1 -0.2-0.1-1.3-0.4-1.4-0.5s-0.3-0.1-0.4-0.3c-0.1-0.3-0.3-1-0.7-1.8 -0.3-0.8-0.8-0.3-1.1 0 -0.3 0.4-0.6 0.8-0.9 1.1 -0.2 0.3-0.4 0.3-0.6 0.3s-1.6 0.2-1.9 0.2c-0.1 0-0.2 0.1-0.3 0.2 -0.1 0.1-0.1 0.1-0.1 0.2 0 0.1 0 0.1 0 0.2 0 0.1 0.1 0.3 0.2 0.4 0.1 0.2 0.8 1.1 0.9 1.2s0.2 0.2 0.1 0.5c-0.1 0.3-0.3 1-0.5 1.8s0.5 0.7 0.9 0.6c0.3-0.1 0.7-0.3 1.1-0.4 0.2-0.1 0.4-0.1 0.4-0.1 0.1 0 0.2 0 0.3 0 0.2 0 0.3 0.1 0.4 0.1 0.1 0.1 0.5 0.3 0.9 0.6 0.1 0.1 0.3 0.2 0.4 0.3 0.4 0.2 1 0.5 1-0.4 0.1-0.8 0-1.5 0-1.9 0-0.1 0-0.1 0-0.2C71.9 87.7 72.2 87.4 73 86.8z" class="b"/><path d="M133.3 33.1c0.8-0.7 0.2-0.9-0.2-1.1 -0.2-0.1-1.3-0.4-1.4-0.5 -0.1-0.1-0.3-0.1-0.4-0.3 -0.1-0.3-0.3-1-0.7-1.8 -0.3-0.8-0.8-0.3-1.1 0 -0.3 0.4-0.6 0.8-0.9 1.1 -0.2 0.3-0.4 0.3-0.6 0.3 -0.2 0-1.6 0.2-1.9 0.2 -0.1 0-0.2 0.1-0.3 0.2 -0.1 0.1-0.1 0.1-0.1 0.2 0 0.1 0 0.1 0 0.2 0 0.1 0.1 0.3 0.2 0.4 0.1 0.2 0.8 1.1 0.9 1.2 0.1 0.1 0.2 0.2 0.1 0.5 -0.1 0.3-0.3 1-0.5 1.8s0.5 0.7 0.9 0.6c0.3-0.1 0.7-0.3 1.1-0.4 0.2-0.1 0.4-0.1 0.4-0.1 0.1 0 0.2 0 0.3 0 0.2 0 0.3 0.1 0.4 0.1 0.1 0.1 0.5 0.3 0.9 0.6 0.1 0.1 0.3 0.2 0.4 0.3 0.4 0.2 1 0.5 1-0.4 0.1-0.8 0-1.5 0-1.9 0-0.1 0-0.1 0-0.2C132.3 34 132.6 33.7 133.3 33.1z" class="b"/><circle cx="68.5" cy="48.5" r="2.4" class="b"/><circle cx="88.2" cy="61.4" r="2.5" class="b"/><circle cx="107.3" cy="52" r="1.5" class="b"/><circle cx="62" cy="114.2" r="2.4" class="b"/><circle cx="40.4" cy="77.9" r="2.5" class="b"/><circle cx="4.1" cy="82.8" r="1.8" class="b"/></svg>