<?xml version="1.0" encoding="utf-8"?>
<!-- Generator: Adobe Illustrator 17.0.0, SVG Export Plug-In . SVG Version: 6.00 Build 0)  -->
<!DOCTYPE svg PUBLIC "-//W3C//DTD SVG 1.1//EN" "http://www.w3.org/Graphics/SVG/1.1/DTD/svg11.dtd">
<svg version="1.1" id="Layer_1" xmlns="http://www.w3.org/2000/svg" xmlns:xlink="http://www.w3.org/1999/xlink" x="0px" y="0px"
	 width="137px" height="133px" viewBox="0 0 137 133" enable-background="new 0 0 137 133" xml:space="preserve">
<g>
	<path fill="#FFCC72" d="M125.1,84c16-5.1,8.7-12.9,3.9-17c-2.9-2.5-17.2-14.8-18.5-16.4c-1.3-1.6-4-2.5-3.8-7.1
		c0.3-5.6,1.4-16.9,0.9-30.3c-0.4-13.3-10-10-16.2-6.3s-14.5,8-19.8,11.3c-5.3,3.3-8.2,2-11.8,1.1s-25.1-7.2-30.4-8.4
		c-2.2-0.5-4.2-0.2-5.9,0.7c-1.4,0.6-2.2,1.7-2.7,2.9c-0.4,0.8-0.5,1.7-0.5,2.7c-0.1,2.2,0.4,4.6,0.9,6.6c1,3.7,5.7,22,5.8,24.1
		c0.1,2.1,1.8,4.3-0.9,7.9c-3.4,4.4-10.8,13.1-18,24.3s2.6,14.1,9.8,14.5c5.3,0.3,12.6,0.6,18.5,0.9c3.3,0.3,6,0.5,7.1,0.7
		c1.4,0.2,2.8,0.4,4.1,0.8c2.2,1.1,3.4,2.8,4.9,4.5c1.4,1.6,6,8.1,10.4,14.3c1.5,2.3,3,4.5,4.3,6.4c4.1,5.9,11.5,12.9,17.5,0.9
		c5.9-12,9.6-22.8,11.6-28c0.4-1,0.8-1.7,1.3-2.3C104.2,90.5,110.6,88.7,125.1,84z"/>
</g>
<g>
	<path d="M67.6,41.4c-12.2,0-22.2,9.9-22.2,22.2s9.9,22.2,22.2,22.2s22.2-9.9,22.2-22.2S79.9,41.4,67.6,41.4z M81.6,51.7
		c2.5,2.9,4.1,6.7,4.3,10.7c-4.5-1.3-8.6-1.4-12.2-0.8c-0.4-1.1-0.8-2.2-1.3-3.3C75.7,56.9,78.9,54.7,81.6,51.7z M78.8,49.1
		c-2.3,2.6-5,4.5-7.9,5.9c-2.2-4.3-4.4-7.3-6.3-9.4c1-0.2,2-0.3,3.1-0.3C71.8,45.3,75.7,46.7,78.8,49.1z M60.3,46.8
		c1.6,1.5,4.2,4.4,6.8,9.6c-6.8,2.2-13.7,2-17,1.8C51.7,53.1,55.5,48.9,60.3,46.8z M49.3,63.6c0-0.5,0-1.1,0.1-1.6
		c1.1,0.1,2.7,0.2,4.5,0.2c4,0,9.5-0.4,14.9-2.3c0.4,0.9,0.7,1.8,1.1,2.8c-8.1,2.8-13.3,9.2-15.9,13C51.1,72.5,49.3,68.2,49.3,63.6z
		 M56.9,78.3c2.1-3.3,6.7-9.5,14.3-12c1.2,4,2.4,8.7,3.2,14.2c-2.1,0.8-4.4,1.3-6.8,1.3C63.6,81.9,59.9,80.5,56.9,78.3z M78,78.6
		c-0.8-5-1.9-9.4-3.1-13.2c3.2-0.4,6.7-0.2,10.7,1.1C84.9,71.5,82,75.8,78,78.6z"/>
</g>
<g>
	<path d="M76.7,21.3c1.2,0,1.4,1,1.4,1.8s0.3,7.5,0.4,9s0.1,4.3-0.1,5.1c-0.1,0.9-0.8,1.2-1.3,1.2s-1.1-0.5-1.2-1.8
		c-0.1-1.2-0.2-5.8-0.3-7.4c-0.2-1.6-0.1-5-0.1-5.9C75.3,22.4,75.5,21.3,76.7,21.3z"/>
	<path d="M89.5,25.9c1.1,0.5,0.9,1.4,0.6,2.1s-2.6,7.1-3.1,8.5s-1.6,4-2,4.7c-0.4,0.8-1.2,0.8-1.7,0.6s-0.8-0.9-0.4-2.1
		c0.4-1.2,2.1-5.4,2.5-6.9c0.5-1.5,1.9-4.6,2.1-5.5C87.8,26.4,88.4,25.4,89.5,25.9z"/>
	<path d="M101.2,33.4c0.8,0.9,0.2,1.7-0.4,2.2s-5.4,5.3-6.4,6.3c-1.1,1-3.1,2.9-3.8,3.4c-0.7,0.5-1.5,0.2-1.8-0.2
		c-0.4-0.4-0.3-1.2,0.5-2.1c0.8-0.9,4.2-4,5.3-5.2c1.1-1.2,3.7-3.4,4.3-4C99.5,33.2,100.4,32.6,101.2,33.4z"/>
</g>
</svg>
